<svg xmlns="http://www.w3.org/2000/svg" viewBox="0 0 1080 1920" role="img" aria-label="AMOLED heart mobile wallpaper">
  <defs>
    <filter id="glow" x="-120%" y="-120%" width="340%" height="340%"><feGaussianBlur stdDeviation="12" result="b"/><feMerge><feMergeNode in="b"/><feMergeNode in="SourceGraphic"/></feMerge></filter>
  </defs>
  <rect width="1080" height="1920" fill="#000"/>
  <g opacity=".7">
    <circle cx="214" cy="340" r="1.5" fill="#ffffff"/><circle cx="870" cy="490" r="1.4" fill="#ffd08a"/>
    <circle cx="690" cy="820" r="1.6" fill="#ff426a"/><circle cx="420" cy="1510" r="1.3" fill="#ffffff"/>
  </g>
  <path d="M540 1280c-122-110-178-172-178-246 0-58 40-98 92-98 42 0 70 22 86 52 16-30 44-52 86-52 52 0 92 40 92 98 0 74-56 136-178 246Z" fill="none" stroke="#ff2d55" stroke-width="8" filter="url(#glow)"/>
  <path d="M540 1280c-122-110-178-172-178-246 0-58 40-98 92-98 42 0 70 22 86 52 16-30 44-52 86-52 52 0 92 40 92 98 0 74-56 136-178 246Z" fill="none" stroke="#ffc1cc" stroke-width="2" opacity=".8"/>
</svg>
