<svg xmlns="http://www.w3.org/2000/svg" viewBox="0 0 1080 1920" role="img" aria-label="Neon heart mobile wallpaper">
  <defs>
    <radialGradient id="bg" cx="50%" cy="42%" r="70%">
      <stop offset="0" stop-color="#311126"/>
      <stop offset="0.42" stop-color="#100912"/>
      <stop offset="1" stop-color="#020407"/>
    </radialGradient>
    <filter id="glow" x="-80%" y="-80%" width="260%" height="260%">
      <feGaussianBlur stdDeviation="20" result="blur"/>
      <feMerge><feMergeNode in="blur"/><feMergeNode in="SourceGraphic"/></feMerge>
    </filter>
  </defs>
  <rect width="1080" height="1920" fill="url(#bg)"/>
  <g opacity=".42">
    <circle cx="210" cy="310" r="2" fill="#fff"/><circle cx="820" cy="260" r="2" fill="#67ddff"/>
    <circle cx="920" cy="760" r="3" fill="#ff8ab0"/><circle cx="170" cy="1180" r="2" fill="#fff"/>
    <circle cx="760" cy="1420" r="2" fill="#67ddff"/><circle cx="420" cy="1660" r="3" fill="#ff8ab0"/>
  </g>
  <path d="M540 1160C326 972 232 846 232 682c0-116 80-202 188-202 63 0 106 28 120 64 14-36 57-64 120-64 108 0 188 86 188 202 0 164-94 290-308 478Z" fill="none" stroke="#ff5f8d" stroke-width="18" filter="url(#glow)"/>
  <path d="M540 1160C326 972 232 846 232 682c0-116 80-202 188-202 63 0 106 28 120 64 14-36 57-64 120-64 108 0 188 86 188 202 0 164-94 290-308 478Z" fill="rgba(255,95,141,.08)" stroke="#ffd7e4" stroke-width="3"/>
</svg>
