<svg xmlns="http://www.w3.org/2000/svg" viewBox="0 0 1080 1920" role="img" aria-label="Silk heart mobile wallpaper">
  <defs>
    <linearGradient id="bg" x1="0" y1="0" x2="1" y2="1">
      <stop offset="0" stop-color="#1b0b1d"/><stop offset=".52" stop-color="#402034"/><stop offset="1" stop-color="#08070d"/>
    </linearGradient>
    <linearGradient id="ribbon" x1="0" y1="0" x2="1" y2="1">
      <stop offset="0" stop-color="#fff2ec"/><stop offset=".45" stop-color="#ff8aa8"/><stop offset="1" stop-color="#ff6b5f"/>
    </linearGradient>
    <filter id="soft" x="-40%" y="-40%" width="180%" height="180%"><feGaussianBlur stdDeviation="10"/></filter>
  </defs>
  <rect width="1080" height="1920" fill="url(#bg)"/>
  <path d="M160 1260C310 1030 380 870 340 720c-38-142 120-230 226-88 104-142 264-54 226 88-42 156 42 330 210 540" fill="none" stroke="url(#ribbon)" stroke-width="86" stroke-linecap="round" opacity=".32" filter="url(#soft)"/>
  <path d="M160 1260C310 1030 380 870 340 720c-38-142 120-230 226-88 104-142 264-54 226 88-42 156 42 330 210 540" fill="none" stroke="url(#ribbon)" stroke-width="44" stroke-linecap="round" opacity=".9"/>
  <g fill="#fff7f2" opacity=".55"><circle cx="252" cy="440" r="3"/><circle cx="872" cy="558" r="2"/><circle cx="734" cy="1438" r="3"/><circle cx="324" cy="1550" r="2"/></g>
</svg>
